<svg width="39" height="38" viewBox="0 0 39 38" fill="none" xmlns="http://www.w3.org/2000/svg">
<g clip-path="url(#clip0_1_175)">
<path d="M37.7852 37.563H2.01196C1.39713 37.563 0.898682 37.0774 0.898682 36.4783V34.3089C0.898682 33.7098 1.39713 33.2241 2.01196 33.2241H37.7852C38.4 33.2241 38.8985 33.7098 38.8985 34.3089V36.4783C38.8985 37.0774 38.4001 37.563 37.7852 37.563Z" fill="#FFBF25"/>
<path d="M24.7227 29.97C24.7227 29.3709 24.2242 28.8853 23.6094 28.8853H16.1875C15.5727 28.8853 15.0742 29.3709 15.0742 29.97V31.0547H24.7227V29.97Z" fill="#FFBF25"/>
<path d="M36.5977 29.97C36.5977 29.3709 36.0992 28.8853 35.4844 28.8853H28.0625C27.4477 28.8853 26.9492 29.3709 26.9492 29.97V31.0547H36.5977V29.97Z" fill="#FFBF25"/>
<path d="M12.8477 29.97C12.8477 29.3709 12.3492 28.8853 11.7344 28.8853H4.3125C3.69767 28.8853 3.19922 29.3709 3.19922 29.97V31.0547H12.8477V29.97Z" fill="#FFBF25"/>
<path d="M15.0742 14.6392C15.0742 15.2382 15.5727 15.7239 16.1875 15.7239H23.6094C24.2242 15.7239 24.7227 15.2382 24.7227 14.6392V13.5544H15.0742V14.6392Z" fill="#FFBF25"/>
<path d="M26.9492 14.6392C26.9492 15.2382 27.4477 15.7239 28.0625 15.7239H35.4844C36.0992 15.7239 36.5977 15.2382 36.5977 14.6392V13.5544H26.9492V14.6392Z" fill="#FFBF25"/>
<path d="M3.19922 14.6392C3.19922 15.2382 3.69767 15.7239 4.3125 15.7239H11.7344C12.3492 15.7239 12.8477 15.2382 12.8477 14.6392V13.5544H3.19922V14.6392Z" fill="#FFBF25"/>
<path d="M29.1758 17.8933H34.3711V26.7158H29.1758V17.8933Z" fill="#FFBF25"/>
<path d="M17.3008 17.8933H22.4961V26.7158H17.3008V17.8933Z" fill="#FFBF25"/>
<path d="M5.42578 17.8933H10.6211V26.7158H5.42578V17.8933Z" fill="#FFBF25"/>
<path d="M38.2813 9.32917L20.3947 0.651332C20.0821 0.499686 19.7148 0.499686 19.4022 0.651332L1.5156 9.32917C1.05315 9.55356 0.809861 10.0585 0.928091 10.5485C1.04632 11.0386 1.49512 11.3849 2.01183 11.3849H37.7851C38.3017 11.3849 38.7505 11.0386 38.8688 10.5485C38.9871 10.0585 38.7438 9.55356 38.2813 9.32917ZM19.8984 7.40761C19.2836 7.40761 18.7852 6.92194 18.7852 6.32288C18.7852 5.72382 19.2836 5.23815 19.8984 5.23815C20.5133 5.23815 21.0117 5.72382 21.0117 6.32288C21.0117 6.92194 20.5133 7.40761 19.8984 7.40761Z" fill="#FFBF25"/>
</g>
<defs>
<clipPath id="clip0_1_175">
<rect width="38" height="37.0256" fill="white" transform="translate(0.898438 0.537598)"/>
</clipPath>
</defs>
</svg>
