<svg width="43" height="43" viewBox="0 0 43 43" fill="none" xmlns="http://www.w3.org/2000/svg">
<g clip-path="url(#clip0_1_137)">
<path d="M1.78516 42.5376H24.0977C24.7773 42.5376 25.3281 41.9868 25.3281 41.3071V39.9946C25.3281 38.6353 24.2265 37.5337 22.8672 37.5337V36.0626C22.8672 34.1147 21.2823 32.5298 19.3344 32.5298H6.54842C4.60049 32.5298 3.01562 34.1147 3.01562 36.0626V37.5337C1.65634 37.5337 0.554688 38.6353 0.554688 39.9946V41.3071C0.554688 41.9864 1.10583 42.5376 1.78516 42.5376Z" fill="#FFBF25"/>
<path d="M15.9547 27.6362C16.7724 28.7215 18.3157 28.9385 19.401 28.1204C20.4866 27.3027 20.7032 25.7594 19.8855 24.6738L12.4802 14.847C11.6622 13.7614 10.1193 13.5448 9.03395 14.3625C7.94832 15.1806 7.73138 16.7235 8.54945 17.8091L15.9547 27.6362Z" fill="#FFBF25"/>
<path d="M33.6431 14.3067C34.4612 15.392 36.0041 15.609 37.0897 14.7909C38.175 13.9731 38.392 12.4302 37.5739 11.3446L30.1686 1.51784C29.3509 0.432203 27.8077 0.215269 26.7224 1.03334C25.6371 1.85141 25.4201 3.3943 26.2382 4.47993L33.6431 14.3067Z" fill="#FFBF25"/>
<path d="M28.2453 21.4556C30.0641 20.0851 31.4295 18.3832 32.2834 16.5914L23.6669 5.15698C21.7091 5.48415 19.6971 6.32721 17.878 7.69803C16.0592 9.06853 14.6938 10.7704 13.8398 12.5619L22.4563 23.9969C24.4142 23.6698 26.4262 22.8264 28.2453 21.4556Z" fill="#FFBF25"/>
<path d="M31.5679 21.7761C30.995 22.36 30.3916 22.9198 29.7264 23.4212C29.0608 23.9224 28.3562 24.3483 27.6375 24.7382L29.2419 26.8675L33.1726 23.9057L31.5679 21.7761Z" fill="#FFBF25"/>
<path d="M34.6537 25.8708L30.7229 28.8326L38.1281 38.6597C38.9462 39.7453 40.4891 39.962 41.5744 39.1442C42.66 38.3261 42.8767 36.7833 42.0589 35.6976L34.6537 25.8708Z" fill="#FFBF25"/>
</g>
<defs>
<clipPath id="clip0_1_137">
<rect width="42" height="42" fill="white" transform="translate(0.554688 0.537598)"/>
</clipPath>
</defs>
</svg>
