<svg width="13" height="17" viewBox="0 0 13 17" fill="none" xmlns="http://www.w3.org/2000/svg">
<path fill-rule="evenodd" clip-rule="evenodd" d="M2.01723 2.72168C3.20964 1.52927 4.8269 0.859375 6.51323 0.859375C8.19956 0.859375 9.81682 1.52927 11.0092 2.72168C12.2017 3.9141 12.8715 5.53136 12.8715 7.21769C12.8715 8.90402 12.2017 10.5213 11.0092 11.7137L6.51323 16.2097L2.01723 11.7137C1.42676 11.1233 0.95838 10.4224 0.63882 9.65094C0.319261 8.87951 0.154785 8.05269 0.154785 7.21769C0.154785 6.38269 0.319261 5.55587 0.63882 4.78444C0.95838 4.01301 1.42676 3.31208 2.01723 2.72168V2.72168ZM6.51323 9.03426C6.99502 9.03426 7.45707 8.84287 7.79774 8.5022C8.13841 8.16152 8.3298 7.69947 8.3298 7.21769C8.3298 6.7359 8.13841 6.27385 7.79774 5.93318C7.45707 5.59251 6.99502 5.40112 6.51323 5.40112C6.03145 5.40112 5.5694 5.59251 5.22873 5.93318C4.88805 6.27385 4.69666 6.7359 4.69666 7.21769C4.69666 7.69947 4.88805 8.16152 5.22873 8.5022C5.5694 8.84287 6.03145 9.03426 6.51323 9.03426Z" fill="#FFBF25"/>
</svg>
