<svg width="40" height="39" viewBox="0 0 40 39" fill="none" xmlns="http://www.w3.org/2000/svg">
<path d="M0.455078 18.9145C0.455078 21.9913 3.01788 24.4945 6.16797 24.4945C9.31806 24.4945 11.8809 21.9913 11.8809 18.9145C11.8809 18.753 11.845 18.5935 11.7757 18.4468L7.94361 10.337C9.73906 10.236 11.5157 9.77575 13.1235 8.99046L13.251 8.92826C14.644 8.24794 16.1299 7.78658 17.6699 7.55475V26.3546H22.2402V7.55475C23.7804 7.78666 25.2662 8.24801 26.6591 8.92818L26.7866 8.99038C28.3945 9.77568 30.1712 10.2359 31.9666 10.337L28.1345 18.4468C28.0652 18.5935 28.0293 18.753 28.0293 18.9145C28.0293 21.9913 30.5921 24.4945 33.7422 24.4945C36.8923 24.4945 39.4551 21.9913 39.4551 18.9145C39.4551 18.753 39.4192 18.5935 39.3499 18.4468L35.3477 9.97693C36.7287 9.56431 37.9941 8.82529 39.0443 7.79953C39.4904 7.36377 39.4904 6.65711 39.0443 6.22127C38.5982 5.78551 37.8747 5.78551 37.4285 6.22127C36.1706 7.44985 34.4983 8.12644 32.7195 8.12644C31.0235 8.12644 29.3254 7.73487 27.8086 6.99407L27.6812 6.9318C26.0195 6.12038 24.2434 5.57853 22.4021 5.32117C22.3485 5.31366 22.2944 5.30994 22.2402 5.30994V2.76961C22.2402 1.53687 21.2172 0.537598 19.9551 0.537598C18.693 0.537598 17.6699 1.53687 17.6699 2.76961V5.30994C17.6158 5.30994 17.5617 5.31373 17.5081 5.32117C15.6668 5.57845 13.8907 6.12038 12.2291 6.9318L12.1016 6.99407C10.5848 7.73487 8.88662 8.12644 7.19065 8.12644C5.41181 8.12644 3.73953 7.44985 2.48171 6.22135C2.03557 5.78558 1.31209 5.78558 0.865873 6.22135C0.419658 6.65711 0.419658 7.36377 0.865873 7.7996C1.91605 8.82536 3.18142 9.56438 4.56249 9.97701L0.560272 18.4468C0.490955 18.5935 0.455078 18.753 0.455078 18.9145H0.455078ZM30.9577 17.7985L33.7422 11.9056L36.5267 17.7985H30.9577ZM6.16797 11.9056L8.95251 17.7985H3.38343L6.16797 11.9056Z" fill="#FFBF25"/>
<path d="M38.3125 36.3985H31.5713C31.5713 35.1658 30.5482 34.1665 29.2861 34.1665H10.624C9.36193 34.1665 8.33887 35.1658 8.33887 36.3985H1.59766C0.966649 36.3985 0.455078 36.8982 0.455078 37.5145C0.455078 38.1309 0.966649 38.6305 1.59766 38.6305H38.3125C38.9435 38.6305 39.4551 38.1309 39.4551 37.5145C39.4551 36.8982 38.9435 36.3985 38.3125 36.3985Z" fill="#FFBF25"/>
<path d="M24.7158 28.5864H15.1943C13.9322 28.5864 12.9092 29.5857 12.9092 30.8184V31.9344H27.001V30.8184C27.001 29.5857 25.9779 28.5864 24.7158 28.5864Z" fill="#FFBF25"/>
</svg>
