<svg width="15" height="15" viewBox="0 0 15 15" fill="none" xmlns="http://www.w3.org/2000/svg">
<path d="M0.192627 0.972884C0.192627 0.737781 0.289034 0.512307 0.46064 0.346063C0.632246 0.17982 0.864993 0.0864258 1.10768 0.0864258H3.07779C3.29439 0.0865224 3.50393 0.161048 3.66914 0.296747C3.83435 0.432445 3.94451 0.620516 3.98003 0.827505L4.65717 4.75895C4.68953 4.94618 4.65898 5.13854 4.57003 5.30769C4.48107 5.47685 4.33841 5.61387 4.16305 5.69859L2.74654 6.38383C3.2545 7.60328 4.01099 8.71103 4.97083 9.64087C5.93067 10.5707 7.07415 11.3036 8.33294 11.7957L9.0412 10.4234C9.1286 10.2537 9.2699 10.1156 9.44433 10.0294C9.61875 9.94328 9.8171 9.91359 10.0102 9.94473L14.0685 10.6007C14.2822 10.6351 14.4763 10.7418 14.6164 10.9019C14.7565 11.0619 14.8334 11.2649 14.8335 11.4748V13.3833C14.8335 13.6184 14.7371 13.8439 14.5655 14.0101C14.3939 14.1764 14.1611 14.2698 13.9184 14.2698H12.0883C5.51824 14.2698 0.192627 9.11057 0.192627 2.7458V0.972884Z" fill="#FFBF25"/>
</svg>
